<?xml version="1.0" encoding="UTF-8" standalone="no"?>
<!-- Created with Inkscape (http://www.inkscape.org/) -->

<svg
   width="256"
   height="256"
   viewBox="0 0 67.733325 67.733325"
   version="1.1"
   id="svg5"
   xml:space="preserve"
   inkscape:version="1.2 (dc2aedaf03, 2022-05-15)"
   sodipodi:docname="icon.svg"
   inkscape:export-filename="icon.png"
   inkscape:export-xdpi="96"
   inkscape:export-ydpi="96"
   xmlns:inkscape="http://www.inkscape.org/namespaces/inkscape"
   xmlns:sodipodi="http://sodipodi.sourceforge.net/DTD/sodipodi-0.dtd"
   xmlns:xlink="http://www.w3.org/1999/xlink"
   xmlns="http://www.w3.org/2000/svg"
   xmlns:svg="http://www.w3.org/2000/svg"><sodipodi:namedview
     id="namedview7"
     pagecolor="#ffffff"
     bordercolor="#999999"
     borderopacity="1"
     inkscape:showpageshadow="0"
     inkscape:pageopacity="0"
     inkscape:pagecheckerboard="false"
     inkscape:deskcolor="#d1d1d1"
     inkscape:document-units="px"
     showgrid="false"
     inkscape:zoom="0.70710678"
     inkscape:cx="83.4386"
     inkscape:cy="128.69343"
     inkscape:window-width="1360"
     inkscape:window-height="705"
     inkscape:window-x="-8"
     inkscape:window-y="-8"
     inkscape:window-maximized="1"
     inkscape:current-layer="layer1" /><defs
     id="defs2"><linearGradient
       inkscape:collect="always"
       id="linearGradient16409"><stop
         style="stop-color:#ffff00;stop-opacity:1;"
         offset="0"
         id="stop16405" /><stop
         style="stop-color:#00ff00;stop-opacity:1;"
         offset="1"
         id="stop16407" /></linearGradient><linearGradient
       inkscape:collect="always"
       xlink:href="#linearGradient16409"
       id="linearGradient16411"
       x1="1.6981794"
       y1="0.0017563422"
       x2="66.037956"
       y2="67.731972"
       gradientUnits="userSpaceOnUse" /></defs><g
     inkscape:label="Layer 1"
     inkscape:groupmode="layer"
     id="layer1"><path
       id="bar1"
       style="fill:url(#linearGradient16411);fill-opacity:1;stroke-width:0.529169;paint-order:markers fill stroke;stop-color:#000000"
       d="m 33.735404,0 c -1.500968,0 -3.111255,1.167284 -3.610468,2.617109 l -2.046225,5.941962 c -0.499215,1.449824 0.307241,2.616759 1.80821,2.616759 h 6.773613 c 1.500968,0 3.111253,-1.166935 3.610469,-2.616759 L 42.316878,2.617109 C 42.816092,1.167284 42.009637,0 40.508666,0 Z m 23.029303,0 c -1.500971,0 -3.111255,1.167284 -3.610471,2.617109 l -3.29685,9.574833 H 17.345308 c -1.500969,0 -3.111255,1.167285 -3.61047,2.617109 l -2.395896,6.958074 c -0.499214,1.449823 0.307241,2.616758 1.80821,2.616758 h 32.512079 l -3.264999,9.482777 h -10.83736 l 1.897466,-5.511085 c 0.499215,-1.449825 -0.307242,-2.61711 -1.80821,-2.61711 h -6.773262 c -1.50097,0 -3.111255,1.167285 -3.61047,2.61711 L 19.364931,33.86666 H 7.8499293 c -1.5009689,0 -3.1109051,1.167285 -3.6101197,2.61711 l -2.3958958,6.957724 c -0.4992146,1.449823 0.3072411,2.617108 1.80821,2.617108 H 15.166774 l -3.29685,9.574834 c -0.499214,1.449823 0.307242,2.617108 1.808211,2.617108 h 6.773261 c 1.500969,0 3.111256,-1.167285 3.61047,-2.617108 l 3.296851,-9.574834 h 27.770691 c 1.500967,0 3.111253,-1.167285 3.610468,-2.617108 l 2.395546,-6.957724 c 0.499216,-1.449825 -0.30724,-2.61711 -1.808209,-2.61711 h -4.741038 l 3.264998,-9.482777 h 2.031874 c 1.500967,0 3.111255,-1.166935 3.610468,-2.616758 l 2.395896,-6.958074 c 0.499216,-1.449824 -0.307241,-2.617109 -1.808209,-2.617109 h -2.031874 l 3.29685,-9.574833 C 65.845393,1.167284 65.038937,0 63.537969,0 Z M 40.205549,48.090476 c -1.50097,0 -3.111255,1.167284 -3.61047,2.617109 l -4.961201,14.408627 c -0.499216,1.449825 0.30724,2.617113 1.808209,2.617113 h 6.773261 c 1.500971,0 3.111257,-1.167288 3.610471,-2.617113 l 4.961553,-14.408627 c 0.499213,-1.449825 -0.307243,-2.617109 -1.808211,-2.617109 z" /></g></svg>
